<?xml version="1.0" encoding="UTF-8"?>
<svg version="1.1" xmlns="http://www.w3.org/2000/svg" width="250" height="75">
<path d="M0 0 C82.5 0 165 0 250 0 C250 24.75 250 49.5 250 75 C167.5 75 85 75 0 75 C0 50.25 0 25.5 0 0 Z " fill="#FAF9F9" transform="translate(0,0)"/>
<path d="M0 0 C4.40608743 2.16298837 7.1987497 4.39680479 9 9 C9.68426057 14.04325384 9.5739862 17.83076884 7.3125 22.4375 C3.29457394 26.88979644 0.53708356 28.19236562 -5.4375 28.5 C-9.18276761 28.39904939 -11.60535952 28.1098855 -14.5625 25.75 C-18.73167278 21.04631789 -19.45314305 17.66227532 -19.31640625 11.47265625 C-18.71586735 6.77955595 -16.30990191 4.1557958 -12.875 1.125 C-8.55651358 -0.56484251 -4.5732948 -0.65960983 0 0 Z " fill="#2E2C5B" transform="translate(178,37)"/>
<path d="M0 0 C4.021875 -0.0928125 4.021875 -0.0928125 8.125 -0.1875 C8.95789551 -0.21481201 9.79079102 -0.24212402 10.64892578 -0.27026367 C15.50216616 -0.32411136 18.8010775 0.298824 23 3 C24.52846661 6.05693322 24.23242445 8.62984547 24 12 C22.625 14.4375 22.625 14.4375 21 16 C20.34 16 19.68 16 19 16 C19.433125 16.69867188 19.86625 17.39734375 20.3125 18.1171875 C20.869375 19.02726562 21.42625 19.93734375 22 20.875 C22.556875 21.77992187 23.11375 22.68484375 23.6875 23.6171875 C25 26 25 26 25 28 C22.375 28.5625 22.375 28.5625 19 28 C17.51171875 26.03125 17.51171875 26.03125 16.0625 23.5625 C14.18536648 20.18651778 14.18536648 20.18651778 11.06640625 18.1796875 C8.93407977 17.86649346 8.93407977 17.86649346 6 18 C6 21.3 6 24.6 6 28 C4.02 28 2.04 28 0 28 C0 18.76 0 9.52 0 0 Z " fill="#302E5D" transform="translate(131,37)"/>
<path d="M0 0 C2.701875 -0.0825 5.40375 -0.165 8.1875 -0.25 C9.02949951 -0.28641602 9.87149902 -0.32283203 10.73901367 -0.36035156 C14.60109046 -0.41727508 16.60172479 -0.23400606 20.01171875 1.76953125 C22 4 22 4 22.625 7.9375 C22.38379519 11.00998987 21.86620017 12.22937114 20.25 15 C15.34061709 18.02115871 10.61992525 17.40334392 5 17 C5 20.3 5 23.6 5 27 C3.35 27 1.7 27 0 27 C0 18.09 0 9.18 0 0 Z " fill="#262456" transform="translate(105,38)"/>
<path d="M0 0 C1.64453125 0.98828125 1.64453125 0.98828125 4.01953125 3.23828125 C4.01953125 4.55828125 4.01953125 5.87828125 4.01953125 7.23828125 C2.69953125 7.56828125 1.37953125 7.89828125 0.01953125 8.23828125 C-0.31046875 7.24828125 -0.64046875 6.25828125 -0.98046875 5.23828125 C-2.58314695 5.13003282 -4.18792623 5.0525748 -5.79296875 4.98828125 C-7.13294922 4.91867188 -7.13294922 4.91867188 -8.5 4.84765625 C-11.09748032 5.01001597 -11.09748032 5.01001597 -12.77734375 7.0078125 C-14.58976614 10.36785532 -14.61389888 13.56147416 -13.98046875 17.23828125 C-12.67835733 20.3663268 -12.67835733 20.3663268 -9.98046875 22.23828125 C-6.12380582 22.90563137 -2.69711656 22.47716385 1.01953125 21.23828125 C1.01953125 19.91828125 1.01953125 18.59828125 1.01953125 17.23828125 C-1.29046875 17.23828125 -3.60046875 17.23828125 -5.98046875 17.23828125 C-5.98046875 15.91828125 -5.98046875 14.59828125 -5.98046875 13.23828125 C-2.02046875 13.23828125 1.93953125 13.23828125 6.01953125 13.23828125 C6.41015625 20.7578125 6.41015625 20.7578125 6.01953125 23.23828125 C1.37736543 27.71182139 -3.89215384 27.63432707 -10.0234375 27.58984375 C-14.52913387 27.0541599 -16.04358994 25.63887777 -18.98046875 22.23828125 C-21.68398257 17.75119929 -21.63339863 13.34080735 -20.98046875 8.23828125 C-16.83686995 -0.20238298 -8.94200383 -3.43923224 0 0 Z " fill="#2E2C5B" transform="translate(210.98046875,37.76171875)"/>
<path d="M0 0 C1.98 0 3.96 0 6 0 C6.01981934 0.55985596 6.03963867 1.11971191 6.06005859 1.6965332 C6.15537783 4.23565854 6.26502753 6.77396888 6.375 9.3125 C6.4059375 10.19357422 6.436875 11.07464844 6.46875 11.98242188 C6.50742187 12.82998047 6.54609375 13.67753906 6.5859375 14.55078125 C6.6173584 15.33106689 6.6487793 16.11135254 6.68115234 16.9152832 C6.89587889 19.30155768 6.89587889 19.30155768 9 22 C12.5 22.5 12.5 22.5 16 22 C18.05127844 18.92308234 18.27260872 18.06355001 18.4140625 14.55078125 C18.45273437 13.70322266 18.49140625 12.85566406 18.53125 11.98242188 C18.5621875 11.10134766 18.593125 10.22027344 18.625 9.3125 C18.66367187 8.41982422 18.70234375 7.52714844 18.7421875 6.60742188 C18.83640218 4.4051538 18.92201588 2.20289278 19 0 C20.98 0 22.96 0 25 0 C25.08132642 3.04221065 25.14065374 6.0822238 25.1875 9.125 C25.21263672 9.9809375 25.23777344 10.836875 25.26367188 11.71875 C25.32378559 16.92860533 24.91701043 20.4906119 22 25 C18.21498501 28.44092272 14.28439343 28.50888729 9.375 28.35546875 C5.95594525 27.84373523 4.27249342 26.5565551 2 24 C0.16729858 20.96506576 -0.24052747 18.7611423 -0.1953125 15.234375 C-0.18886719 14.34492188 -0.18242188 13.45546875 -0.17578125 12.5390625 C-0.15902344 11.61867188 -0.14226563 10.69828125 -0.125 9.75 C-0.11597656 8.81414063 -0.10695312 7.87828125 -0.09765625 6.9140625 C-0.07413636 4.60911343 -0.04126853 2.3046884 0 0 Z " fill="#BA224D" transform="translate(36,14)"/>
<path d="M0 0 C1.11246094 -0.0103125 2.22492187 -0.020625 3.37109375 -0.03125 C7.1835689 0.60338479 8.89021559 1.74280188 11.5625 4.5 C11.5625 5.49 11.5625 6.48 11.5625 7.5 C9.5825 7.5 7.6025 7.5 5.5625 7.5 C5.5625 6.84 5.5625 6.18 5.5625 5.5 C2.5925 5.5 -0.3775 5.5 -3.4375 5.5 C-3.4375 6.82 -3.4375 8.14 -3.4375 9.5 C-2.53386719 9.74234375 -1.63023438 9.9846875 -0.69921875 10.234375 C0.48027344 10.56953125 1.65976562 10.9046875 2.875 11.25 C4.04675781 11.57484375 5.21851563 11.8996875 6.42578125 12.234375 C9.74299457 13.5728272 10.92482601 14.36603395 12.5625 17.5 C12.625 21 12.625 21 11.5625 24.5 C8.06090863 28.09373851 4.91712575 28.8111706 0.0625 29.0625 C-3.70748503 28.92877611 -6.13314307 28.53266102 -9.125 26.1875 C-11.4375 23.5 -11.4375 23.5 -11.4375 20.5 C-9.4575 20.5 -7.4775 20.5 -5.4375 20.5 C-5.1075 21.16 -4.7775 21.82 -4.4375 22.5 C-1.1375 22.5 2.1625 22.5 5.5625 22.5 C5.5625 21.18 5.5625 19.86 5.5625 18.5 C4.65886719 18.25765625 3.75523438 18.0153125 2.82421875 17.765625 C1.05498047 17.26289062 1.05498047 17.26289062 -0.75 16.75 C-1.92175781 16.42515625 -3.09351563 16.1003125 -4.30078125 15.765625 C-7.61841738 14.4270022 -8.75663722 13.6013102 -10.4375 10.5 C-10.875 7.5 -10.875 7.5 -10.4375 4.5 C-7.35286948 0.40693258 -5.0206743 -0.04643398 0 0 Z " fill="#BA214D" transform="translate(20.4375,13.5)"/>
<path d="M0 0 C-1.52853935 4.27186525 -3.71509481 7.99326863 -6.125 11.8125 C-6.49753906 12.40998047 -6.87007812 13.00746094 -7.25390625 13.62304688 C-8.1657048 15.08426251 -9.08235976 16.54244585 -10 18 C-11.10472656 17.80535156 -12.20945313 17.61070313 -13.34765625 17.41015625 C-16.94105861 16.63620015 -16.94105861 16.63620015 -19.4375 18.4375 C-19.953125 18.953125 -20.46875 19.46875 -21 20 C-21.13535156 19.39671875 -21.27070313 18.7934375 -21.41015625 18.171875 C-22.65124811 13.29976108 -22.65124811 13.29976108 -25.7578125 9.51171875 C-27.87567532 8.29130897 -27.87567532 8.29130897 -31 7 C-28.55216075 4.55216075 -27.09368708 4.4058057 -23.73046875 3.7109375 C-22.67666016 3.49179688 -21.62285156 3.27265625 -20.53710938 3.046875 C-19.43173828 2.82515625 -18.32636719 2.6034375 -17.1875 2.375 C-15.5468457 2.03082031 -15.5468457 2.03082031 -13.87304688 1.6796875 C-9.16938284 0.71659724 -4.81854972 -0.14364092 0 0 Z " fill="#B91E4B" transform="translate(242,8)"/>
<path d="M0 0 C6.6 0 13.2 0 20 0 C20 1.65 20 3.3 20 5 C15.38 5 10.76 5 6 5 C6 7.64 6 10.28 6 13 C10.29 13 14.58 13 19 13 C19 14.32 19 15.64 19 17 C14.38 17 9.76 17 5 17 C5 20.3 5 23.6 5 27 C3.35 27 1.7 27 0 27 C0 18.09 0 9.18 0 0 Z " fill="#B91B48" transform="translate(66,14)"/>
<path d="M0 0 C1.90625 0.4765625 1.90625 0.4765625 4.40625 2.4765625 C6.32685267 6.31776785 6.63018619 9.26069882 5.90625 13.4765625 C3.76736111 18.04600694 3.76736111 18.04600694 0.90625 19.4765625 C-1.96875 19.7890625 -1.96875 19.7890625 -5.09375 19.4765625 C-7.39650556 17.6094634 -8.77198871 16.12008509 -10.09375 13.4765625 C-10.46119365 8.99375 -10.61083331 6.51072912 -8.59375 2.4765625 C-5.56453078 0.05318712 -3.80597167 -0.26982635 0 0 Z " fill="#F4F4F4" transform="translate(175.09375,41.5234375)"/>
<path d="M0 0 C1.98 0 3.96 0 6 0 C6 9.24 6 18.48 6 28 C4.02 28 2.04 28 0 28 C0 18.76 0 9.52 0 0 Z " fill="#B91E4A" transform="translate(90,14)"/>
<path d="M0 0 C0.33 0 0.66 0 1 0 C1 8.91 1 17.82 1 27 C2.65 27 4.3 27 6 27 C6 23.7 6 20.4 6 17 C10.62 17 15.24 17 20 17 C20.33 15.68 20.66 14.36 21 13 C21.3125 15.25 21.3125 15.25 21 18 C18.82233897 20.17766103 17.19129854 21.7973816 14.09375 22.32421875 C11.07343274 23.29905995 9.7776623 25.16309962 7.75 27.5625 C7.04359375 28.38878906 6.3371875 29.21507813 5.609375 30.06640625 C5.07828125 30.70449219 4.5471875 31.34257813 4 32 C1.19457206 29.73818439 0.09012429 28.60024715 -0.45410156 24.97558594 C-0.4331543 23.82348633 -0.41220703 22.67138672 -0.390625 21.484375 C-0.37773438 20.23398437 -0.36484375 18.98359375 -0.3515625 17.6953125 C-0.31804687 16.39335937 -0.28453125 15.09140625 -0.25 13.75 C-0.23195313 12.43257812 -0.21390625 11.11515625 -0.1953125 9.7578125 C-0.14816271 6.50447692 -0.08236044 3.25260375 0 0 Z " fill="#D4AAB6" transform="translate(65,14)"/>
<path d="M0 0 C-1.52853935 4.27186525 -3.71509481 7.99326863 -6.125 11.8125 C-6.49753906 12.40998047 -6.87007812 13.00746094 -7.25390625 13.62304688 C-8.1657048 15.08426251 -9.08235976 16.54244585 -10 18 C-13.77545388 16.90931332 -16.47043472 16.0916909 -19 13 C-18.2059375 12.46890625 -17.411875 11.9378125 -16.59375 11.390625 C-15.5728125 10.68421875 -14.551875 9.9778125 -13.5 9.25 C-12.4790625 8.55390625 -11.458125 7.8578125 -10.40625 7.140625 C-9.6121875 6.43421875 -8.818125 5.7278125 -8 5 C-8 3.68 -8 2.36 -8 1 C-5.07175348 0.02391783 -3.04386724 -0.08226668 0 0 Z " fill="#B31A48" transform="translate(242,8)"/>
<path d="M0 0 C1.90625 0.4765625 1.90625 0.4765625 4.40625 2.4765625 C6.32685267 6.31776785 6.63018619 9.26069882 5.90625 13.4765625 C3.76736111 18.04600694 3.76736111 18.04600694 0.90625 19.4765625 C-2.09375 19.6640625 -2.09375 19.6640625 -5.09375 19.4765625 C-5.75375 18.8165625 -6.41375 18.1565625 -7.09375 17.4765625 C-6.000625 17.3528125 -4.9075 17.2290625 -3.78125 17.1015625 C-0.01993198 16.72191449 -0.01993198 16.72191449 2.90625 14.4765625 C3.27041047 12.03962939 3.27041047 12.03962939 3.09375 9.3515625 C3.05314453 7.98644531 3.05314453 7.98644531 3.01171875 6.59375 C2.95951172 5.54574219 2.95951172 5.54574219 2.90625 4.4765625 C-0.39942489 3.62269145 -0.39942489 3.62269145 -4.09375 3.4765625 C-7.31892896 5.59839076 -7.97505022 6.96219679 -8.84375 10.7265625 C-8.92625 11.6340625 -9.00875 12.5415625 -9.09375 13.4765625 C-9.42375 13.4765625 -9.75375 13.4765625 -10.09375 13.4765625 C-10.57136194 6.43178638 -10.57136194 6.43178638 -8.59375 2.4765625 C-5.56453078 0.05318712 -3.80597167 -0.26982635 0 0 Z " fill="#D0D0D3" transform="translate(175.09375,41.5234375)"/>
<path d="M0 0 C8.75 -0.125 8.75 -0.125 11 1 C11.125 3.875 11.125 3.875 11 7 C9 9 9 9 6.8359375 9.1953125 C4.55729167 9.13020833 2.27864583 9.06510417 0 9 C0 6.03 0 3.06 0 0 Z " fill="#D8D8D9" transform="translate(110,42)"/>
<path d="M0 0 C5.33333333 2 10.66666667 4 16 6 C15.67 7.65 15.34 9.3 15 11 C11.7 11 8.4 11 5 11 C4.67 10.01 4.34 9.02 4 8 C1.98491642 7.26676204 1.98491642 7.26676204 0 7 C1.32 7 2.64 7 4 7 C4 6.01 4 5.02 4 4 C2.68 3.34 1.36 2.68 0 2 C0 1.34 0 0.68 0 0 Z " fill="#DCD5D7" transform="translate(11,26)"/>
<path d="M0 0 C1.62490954 -0.02698189 3.24994633 -0.04638757 4.875 -0.0625 C5.77992188 -0.07410156 6.68484375 -0.08570313 7.6171875 -0.09765625 C10 0 10 0 12 1 C12 2.98 12 4.96 12 7 C9.47524538 8.26237731 7.68799534 8.09856404 4.875 8.0625 C3.96492187 8.05347656 3.05484375 8.04445313 2.1171875 8.03515625 C1.41851562 8.02355469 0.71984375 8.01195312 0 8 C0 5.36 0 2.72 0 0 Z " fill="#DADADB" transform="translate(137,42)"/>
<path d="M0 0 C-0.03515625 2.6953125 -0.03515625 2.6953125 -1 6 C-3.23662043 8.05592129 -5.77741144 9.43074139 -8.4375 10.875 C-9.13166016 11.2771875 -9.82582031 11.679375 -10.54101562 12.09375 C-15.64672353 15 -15.64672353 15 -18 15 C-18 14.34 -18 13.68 -18 13 C-16.02 12.01 -14.04 11.02 -12 10 C-12 9.34 -12 8.68 -12 8 C-12.66 7.67 -13.32 7.34 -14 7 C-12.04480616 5.82807953 -10.0857461 4.6626071 -8.125 3.5 C-7.03445312 2.8503125 -5.94390625 2.200625 -4.8203125 1.53125 C-2 0 -2 0 0 0 Z " fill="#E4A8B9" transform="translate(219,19)"/>
<path d="M0 0 C-5.445 3.96 -5.445 3.96 -11 8 C-10.01 9.485 -10.01 9.485 -9 11 C-10.65 12.32 -12.3 13.64 -14 15 C-15.27554412 12.37387975 -16.01431796 10.47550714 -15.92578125 7.53515625 C-14.58833829 3.87270697 -12.58914428 3.26153818 -9.125 1.625 C-8.05507812 1.10164062 -6.98515625 0.57828125 -5.8828125 0.0390625 C-3 -1 -3 -1 0 0 Z " fill="#402152" transform="translate(235,13)"/>
<path d="M0 0 C4.29 0 8.58 0 13 0 C13.10794277 2.26979665 13.18556176 4.54105196 13.25 6.8125 C13.29640625 8.07707031 13.3428125 9.34164062 13.390625 10.64453125 C13 14 13 14 11.171875 15.88671875 C7.21675873 17.91407151 5.07690542 18.00399211 0.8125 17.0625 C-0.08855469 16.86785156 -0.98960937 16.67320313 -1.91796875 16.47265625 C-2.60503906 16.31667969 -3.29210937 16.16070312 -4 16 C-4 15.67 -4 15.34 -4 15 C-3.16855469 14.87882812 -2.33710938 14.75765625 -1.48046875 14.6328125 C-0.39378906 14.46523437 0.69289062 14.29765625 1.8125 14.125 C2.89144531 13.96257813 3.97039062 13.80015625 5.08203125 13.6328125 C8.17321793 13.14867662 8.17321793 13.14867662 11 11 C11.58189266 8.57478506 11.58189266 8.57478506 11.6875 5.875 C11.790625 4.26625 11.89375 2.6575 12 1 C8.04 1 4.08 1 0 1 C0 0.67 0 0.34 0 0 Z " fill="#BDBCC6" transform="translate(205,50)"/>
<path d="M0 0 C2.47438047 4.94876095 3.1823292 7.91463273 3.1875 13.375 C3.19974609 14.04789063 3.21199219 14.72078125 3.22460938 15.4140625 C3.23554802 19.11861843 3.04027865 21.85490643 1 25 C0.67 25 0.34 25 0 25 C0 16.75 0 8.5 0 0 Z " fill="#E5E5E5" transform="translate(96,15)"/>
<path d="M0 0 C3.28815837 3.28815837 2.97713028 7.14558716 3.09765625 11.6484375 C3.08605469 12.87820312 3.07445312 14.10796875 3.0625 15.375 C3.05347656 16.62023437 3.04445312 17.86546875 3.03515625 19.1484375 C3.02355469 20.08945312 3.01195312 21.03046875 3 22 C1.01489942 20.36292167 0.08152696 19.49903853 -0.34057617 16.9152832 C-0.32486572 16.13499756 -0.30915527 15.35471191 -0.29296875 14.55078125 C-0.28330078 13.70322266 -0.27363281 12.85566406 -0.26367188 11.98242188 C-0.23853516 11.10134766 -0.21339844 10.22027344 -0.1875 9.3125 C-0.17396484 8.41982422 -0.16042969 7.52714844 -0.14648438 6.60742188 C-0.11114079 4.40433834 -0.06180493 2.20247418 0 0 Z " fill="#DECCD1" transform="translate(42,14)"/>
<path d="M0 0 C3.63 0 7.26 0 11 0 C10.01 1.485 10.01 1.485 9 3 C7.33333333 3.33333333 5.66666667 3.66666667 4 4 C3.01 5.485 3.01 5.485 2 7 C5.96 7 9.92 7 14 7 C14 7.33 14 7.66 14 8 C9.38 8 4.76 8 0 8 C0 5.36 0 2.72 0 0 Z " fill="#DBD6D8" transform="translate(72,19)"/>
<path d="M0 0 C0.33 0 0.66 0 1 0 C1.08733513 3.08315385 1.14050127 6.16598827 1.1875 9.25 C1.21263672 10.12269531 1.23777344 10.99539062 1.26367188 11.89453125 C1.33834499 18.41598332 1.33834499 18.41598332 -0.51171875 21.609375 C-1.00285156 22.06828125 -1.49398437 22.5271875 -2 23 C-2.99 22.67 -3.98 22.34 -5 22 C-4.51789062 21.484375 -4.03578125 20.96875 -3.5390625 20.4375 C-1.5087407 17.22196497 -1.52712831 14.77918756 -1.375 11 C-1.03684125 3.39947951 -1.03684125 3.39947951 0 0 Z " fill="#DDCFD3" transform="translate(54,14)"/>
<path d="M0 0 C0.66 0 1.32 0 2 0 C2.33 1.65 2.66 3.3 3 5 C1.54462432 5.83848804 0.08559627 6.67063934 -1.375 7.5 C-2.59316406 8.19609375 -2.59316406 8.19609375 -3.8359375 8.90625 C-6 10 -6 10 -8 10 C-7.8125 7.6875 -7.8125 7.6875 -7 5 C-2.96551724 2 -2.96551724 2 0 2 C0 1.34 0 0.68 0 0 Z " fill="#F0D4DC" transform="translate(218,23)"/>
<path d="M0 0 C-1.125 1.5 -1.125 1.5 -3 3 C-4.99956611 3.04165763 -7.00043389 3.04165763 -9 3 C-12.22404978 4.66954819 -12.22404978 4.66954819 -12.6875 7.625 C-12.790625 8.40875 -12.89375 9.1925 -13 10 C-13.33 10 -13.66 10 -14 10 C-14 6.7 -14 3.4 -14 0 C-12.04235617 -0.19456705 -10.08384679 -0.38044247 -8.125 -0.5625 C-6.48917969 -0.71912109 -6.48917969 -0.71912109 -4.8203125 -0.87890625 C-2 -1 -2 -1 0 0 Z " fill="#B9B9C1" transform="translate(124,55)"/>
<path d="M0 0 C-1.875 3.875 -1.875 3.875 -3 5 C-5.67058851 5.14115161 -8.32432238 5.04247107 -11 5 C-11.66 3.68 -12.32 2.36 -13 1 C-11.20843648 0.83222817 -9.4167455 0.66581706 -7.625 0.5 C-6.62726563 0.4071875 -5.62953125 0.314375 -4.6015625 0.21875 C-2 0 -2 0 0 0 Z " fill="#D4D3D6" transform="translate(180,64)"/>
<path d="M0 0 C-0.33 1.32 -0.66 2.64 -1 4 C-1.763125 3.79375 -2.52625 3.5875 -3.3125 3.375 C-6.21885944 2.66608797 -6.21885944 2.66608797 -9 5 C-9.78988145 6.95385067 -9.78988145 6.95385067 -10.1875 9.125 C-10.455625 10.40375 -10.72375 11.6825 -11 13 C-11.33 13 -11.66 13 -12 13 C-12.47761194 5.95522388 -12.47761194 5.95522388 -10.5 2 C-6.88152311 -0.89478151 -4.54718722 -0.37893227 0 0 Z " fill="#CBCBCE" transform="translate(208,42)"/>
<path d="M0 0 C1.95979427 0.28168297 3.91782378 0.57566717 5.875 0.875 C7.51082031 1.11863281 7.51082031 1.11863281 9.1796875 1.3671875 C12 2 12 2 14 4 C7.71428571 6.42857143 7.71428571 6.42857143 4 5 C4 4.34 4 3.68 4 3 C2.68 2.67 1.36 2.34 0 2 C0 1.34 0 0.68 0 0 Z " fill="#E0E0E0" transform="translate(196,64)"/>
<path d="M0 0 C0.556875 0.268125 1.11375 0.53625 1.6875 0.8125 C0.6875 2.8125 0.6875 2.8125 -1.8125 3.875 C-4.48238387 5.5322748 -4.48238387 5.5322748 -4.86328125 8.0078125 C-5.10209734 10.281912 -5.25979232 12.5269035 -5.3125 14.8125 C-7.3125 12.8125 -7.3125 12.8125 -7.75 9 C-7.66620136 5.46756495 -7.29618843 4.79029815 -5.0625 1.75 C-2.3125 -0.1875 -2.3125 -0.1875 0 0 Z " fill="#DFDFE0" transform="translate(173.3125,44.1875)"/>
<path d="M0 0 C2.31 0 4.62 0 7 0 C7.66 1.32 8.32 2.64 9 4 C7.02 4 5.04 4 3 4 C2.34 5.98 1.68 7.96 1 10 C0.67 10 0.34 10 0 10 C0 6.7 0 3.4 0 0 Z " fill="#CECED0" transform="translate(137,55)"/>
<path d="M0 0 C0.66 0.33 1.32 0.66 2 1 C-0.87981351 4.30645255 -2.61876776 5.61055713 -7 6 C-10.00225595 6.06570594 -12.99772786 6.05886808 -16 6 C-16 5.34 -16 4.68 -16 4 C-14.89591797 3.94392578 -14.89591797 3.94392578 -13.76953125 3.88671875 C-8.35576021 3.52198649 -4.53381008 3.21754264 0 0 Z " fill="#DBD7D8" transform="translate(31,38)"/>
<path d="M0 0 C0.66 0.33 1.32 0.66 2 1 C-1.27194342 5.10398401 -4.15189388 8.71061656 -9 11 C-9.66 11 -10.32 11 -11 11 C-11 10.34 -11 9.68 -11 9 C-9.02 8.01 -7.04 7.02 -5 6 C-5 5.34 -5 4.68 -5 4 C-5.66 3.67 -6.32 3.34 -7 3 C-4.69631264 1.93347808 -2.35981813 0.93578995 0 0 Z " fill="#E9B8C6" transform="translate(212,23)"/>
<path d="M0 0 C-2.96283313 2.38672669 -5.94270509 4.7353371 -9 7 C-9.25 4.6875 -9.25 4.6875 -9 2 C-6.04897468 -1.27891703 -4.09533092 -1.25135112 0 0 Z " fill="#E7E7E7" transform="translate(120,58)"/>
<path d="M0 0 C2.0625 0.4375 2.0625 0.4375 4 1 C2.35 2.65 0.7 4.3 -1 6 C-1.042721 4.33388095 -1.04063832 2.66617115 -1 1 C-0.67 0.67 -0.34 0.34 0 0 Z M-7 6 C-5.02 6 -3.04 6 -1 6 C-2.32 7.32 -3.64 8.64 -5 10 C-5.66 8.68 -6.32 7.36 -7 6 Z " fill="#E8E8E8" transform="translate(73,36)"/>
<path d="M0 0 C-2.79527955 2.63085134 -4.30571912 3.93193325 -8.1875 4.3125 C-11 4 -11 4 -13 3 C-13 2.34 -13 1.68 -13 1 C-8.62426048 0.40667939 -4.42471556 -0.13827236 0 0 Z " fill="#EAEAEA" transform="translate(29,43)"/>
<path d="M0 0 C0.66 0.66 1.32 1.32 2 2 C-2.77830905 4.91360308 -5.55106131 5.19876651 -11 4 C-11 3.34 -11 2.68 -11 2 C-10.06027344 1.90912109 -10.06027344 1.90912109 -9.1015625 1.81640625 C-7.87566406 1.69072266 -7.87566406 1.69072266 -6.625 1.5625 C-5.81289063 1.48128906 -5.00078125 1.40007813 -4.1640625 1.31640625 C-1.95727195 1.10909886 -1.95727195 1.10909886 0 0 Z " fill="#EBEBEB" transform="translate(55,42)"/>
<path d="M0 0 C0.66 0.33 1.32 0.66 2 1 C1.47599609 1.67095703 1.47599609 1.67095703 0.94140625 2.35546875 C-1.68898628 5.85023956 -3.59207142 8.51278557 -4 13 C-4.33 13 -4.66 13 -5 13 C-5.2975048 5.26487524 -5.2975048 5.26487524 -3 2 C-2.01 1.34 -1.02 0.68 0 0 Z " fill="#E3E3E3" transform="translate(202,44)"/>
<path d="M0 0 C0.33 0.99 0.66 1.98 1 3 C-0.98 4.98 -2.96 6.96 -5 9 C-5.99 8.67 -6.98 8.34 -8 8 C-5.36 5.36 -2.72 2.72 0 0 Z " fill="#E7E7E7" transform="translate(188,58)"/>
<path d="M0 0 C-2 3 -2 3 -4.4375 3.5 C-5.283125 3.665 -6.12875 3.83 -7 4 C-8.79385992 5.4579186 -8.79385992 5.4579186 -10 7 C-9.6875 4.625 -9.6875 4.625 -9 2 C-5.5647952 -0.29013653 -4.014669 -0.17842973 0 0 Z " fill="#DEDEDE" transform="translate(83,19)"/>
<path d="M0 0 C1.98 0 3.96 0 6 0 C5.38125 0.7425 4.7625 1.485 4.125 2.25 C1.80329196 5.07171298 1.80329196 5.07171298 0 9 C0 6.03 0 3.06 0 0 Z " fill="#B1B1BA" transform="translate(110,42)"/>
<path d="M0 0 C2.125 0.375 2.125 0.375 4 1 C2.49336217 4.01327566 -0.03166411 4.61056618 -3 6 C-2.42655063 3.13275314 -2.1385485 2.1385485 0 0 Z " fill="#E8E8E8" transform="translate(171,44)"/>
<path d="M0 0 C0.598125 0.763125 1.19625 1.52625 1.8125 2.3125 C3.46959332 4.3483575 5.10297674 6.1978279 7 8 C2.25 7.125 2.25 7.125 0 6 C0 4.02 0 2.04 0 0 Z " fill="#DAD3D5" transform="translate(36,34)"/>
<path d="M0 0 C2.64 0 5.28 0 8 0 C5.37352812 1.75098126 2.71224618 3.38731308 0 5 C0 3.35 0 1.7 0 0 Z " fill="#D5D5D5" transform="translate(72,32)"/>
<path d="M0 0 C1.65 0 3.3 0 5 0 C4.54625 0.5775 4.0925 1.155 3.625 1.75 C2.15886484 3.7800333 1.05142216 5.73539843 0 8 C0 5.36 0 2.72 0 0 Z " fill="#CCCCCD" transform="translate(137,42)"/>
</svg>
